<?xml version="1.0" encoding="UTF-8" standalone="no"?>
<!DOCTYPE svg PUBLIC "-//W3C//DTD SVG 1.1//EN" "http://www.w3.org/Graphics/SVG/1.1/DTD/svg11.dtd">
<svg width="100%" height="100%" viewBox="0 0 1024 1024" version="1.1" xmlns="http://www.w3.org/2000/svg" xmlns:xlink="http://www.w3.org/1999/xlink" xml:space="preserve" xmlns:serif="http://www.serif.com/" style="fill-rule:evenodd;clip-rule:evenodd;stroke-linejoin:round;stroke-miterlimit:2;">
    <g transform="matrix(0.09375,0,0,1,0,0)">
        <rect x="0" y="0" width="1024" height="1024" style="fill:white;"/>
    </g>
    <g transform="matrix(0.09375,0,0,1,928,0)">
        <rect x="0" y="0" width="1024" height="1024" style="fill:white;"/>
    </g>
    <g transform="matrix(0.765284,0,0,1,275.507922,-11)">
        <path d="M-70.79,170.683C-70.79,170.678 -70.79,170.672 -70.79,170.667C-70.79,112.9 -9.506,66 65.978,66L552.072,66C627.557,66 688.841,112.9 688.841,170.667C688.841,228.434 627.557,275.333 552.072,275.333C552.072,275.333 395.097,275.333 291.603,275.333C268.036,275.333 245.436,282.498 228.772,295.25C212.108,308.003 202.747,325.299 202.747,343.333C202.747,413.252 202.747,511.983 202.747,511.983C202.747,511.989 202.747,511.994 202.747,512C202.747,569.767 141.463,616.667 65.978,616.667C-9.506,616.667 -70.79,569.767 -70.79,512C-70.79,511.994 -70.79,511.989 -70.79,511.983L-70.79,170.683Z"/>
    </g>
    <g transform="matrix(-0.765284,0,-0,-1,748.492078,1051.666667)">
        <path d="M-70.79,170.683C-70.79,170.678 -70.79,170.672 -70.79,170.667C-70.79,112.9 -9.506,66 65.978,66L552.072,66C627.557,66 688.841,112.9 688.841,170.667C688.841,228.434 627.557,275.333 552.072,275.333C552.072,275.333 395.097,275.333 291.603,275.333C268.036,275.333 245.436,282.498 228.772,295.25C212.108,308.003 202.747,325.299 202.747,343.333C202.747,413.252 202.747,511.983 202.747,511.983C202.747,511.989 202.747,511.994 202.747,512C202.747,569.767 141.463,616.667 65.978,616.667C-9.506,616.667 -70.79,569.767 -70.79,512C-70.79,511.994 -70.79,511.989 -70.79,511.983L-70.79,170.683Z"/>
    </g>
</svg>
