<?xml version="1.0" encoding="UTF-8" standalone="no"?><!DOCTYPE svg PUBLIC "-//W3C//DTD SVG 1.1//EN" "http://www.w3.org/Graphics/SVG/1.1/DTD/svg11.dtd"><svg width="100%" height="100%" viewBox="0 0 591 591" version="1.1" xmlns="http://www.w3.org/2000/svg" xmlns:xlink="http://www.w3.org/1999/xlink" xml:space="preserve" xmlns:serif="http://www.serif.com/" style="fill-rule:evenodd;clip-rule:evenodd;stroke-linejoin:round;stroke-miterlimit:2;"><g><rect x="8.551" y="49.847" width="573.449" height="491.346" style="fill:#fff;"/><path d="M590.333,49.847l0,491.346c-0,4.602 -3.731,8.333 -8.333,8.333l-573.449,0c-4.602,-0 -8.333,-3.731 -8.333,-8.333l-0,-491.346c0,-4.602 3.731,-8.333 8.333,-8.333l573.449,0c4.602,-0 8.333,3.731 8.333,8.333Zm-8.333,-0l-573.449,0l0,491.346l573.449,0l0,-491.346Z"/><path d="M536.361,95.485l0,400.068l-482.171,0l-0,-400.068l482.171,-0Zm-377.784,100.988c42.607,0 77.198,46.339 77.198,103.416c0,57.077 -34.591,103.416 -77.198,103.416c-42.607,0 -77.198,-46.339 -77.198,-103.416c0,-57.077 34.591,-103.416 77.198,-103.416Zm273.397,0c42.607,0 77.198,46.339 77.198,103.416c0,57.077 -34.591,103.416 -77.198,103.416c-42.607,0 -77.198,-46.339 -77.198,-103.416c0,-57.077 34.591,-103.416 77.198,-103.416Z"/><ellipse cx="158.577" cy="299.889" rx="77.198" ry="103.416" style="fill:#fff;"/><ellipse cx="431.974" cy="299.889" rx="77.198" ry="103.416" style="fill:#fff;"/></g></svg>