<?xml version="1.0" encoding="UTF-8" standalone="no"?>
<!DOCTYPE svg PUBLIC "-//W3C//DTD SVG 1.1//EN" "http://www.w3.org/Graphics/SVG/1.1/DTD/svg11.dtd">
<svg width="100%" height="100%" viewBox="0 0 605 605" version="1.1" xmlns="http://www.w3.org/2000/svg" xmlns:xlink="http://www.w3.org/1999/xlink" xml:space="preserve" xmlns:serif="http://www.serif.com/" style="fill-rule:evenodd;clip-rule:evenodd;stroke-linejoin:round;stroke-miterlimit:2;">
    <g transform="matrix(1.252732,0,0,1.252732,-76.416664,-76.416664)">
        <g transform="matrix(0.798255,0,0,0.798255,61,61)">
            <circle cx="302.362" cy="302.362" r="302.362" style="fill:rgb(38,36,34);"/>
        </g>
        <path d="M429,206L521,206L532,134L440,134L429,206Z" style="fill:rgb(255,75,77);"/>
        <path d="M352,427L356,398C356,398 342.667,412.167 335,417C327.408,421.787 318.762,425.053 310,427C299.5,429.333 272,431 272,431L235,431C235,431 208.5,429.833 197,428C187.499,426.485 173.833,423.833 166,420C158.563,416.361 153.5,412.167 149,407C145.278,402.727 139.5,392.333 138,385C136.864,379.448 137.385,365.633 138,360C139,350.833 140.833,333.167 144,322C146.89,311.808 149.835,300.802 157,293C164.5,284.833 170,279 189,273C211.926,265.76 256,265 256,265L291,265C314,265 327,267 340,271C359.494,276.998 370,289 370,289L371,289L374,257C374,257 375.778,238.778 370,233C361,224 335,224 335,224L292,224C292,224 266,224 256,233C251.568,236.989 248,249 248,249L160,249C160,249 161.745,232.408 164,225C166.333,217.333 169.193,209.464 174,203C178.833,196.5 181.471,193.36 193,186C200.854,180.986 211.706,178.026 219,176C238.919,170.467 293,168 293,168L354,168C387,168 418,176 418,176L412,221L464,221C464,221 468,250 465,272C460.337,306.195 443,427 443,427L352,427ZM231,344C228,359 232.466,363.662 238,368C244.167,372.833 268,373 268,373L318,374C318,374 343,373 355,366C360.794,362.62 364,348 364,348C364,348 368,331 362,325C355,318 332,317 326,317L284,317C267,317 246,322 246,322C246,322 234.747,325.266 231,344Z" style="fill:white;"/>
    </g>
</svg>
